# xmcd
#
# Track frame offsets:
#	150
#	22410
#	52362
#	68795
#	89643
#	102269
#	126292
#	151768
#	174165
#	194970
#	218307
#	258604
#	284339
#	313502
#	328703
#
# Disc length: 4386 seconds
#
# Revision: 5
# Processed by: cddbd v1.4PL0 Copyright (c) Steve Scherf et al.
# Submitted via: MusicWizard 6.0.0
#
DISCID=e611200f
DTITLE=The Harlem Gospel Singers - Rock My Soul
DYEAR=2000
DGENRE=Blues
TTITLE0=This Train
TTITLE1=Its Me Oh Lord
TTITLE2=Traditional Medley
TTITLE3=Sweepin´ Trough The City
TTITLE4=When All Gods Children Get Together
TTITLE5=Free
TTITLE6=Ain´t No Stopp´n Us Now
TTITLE7=Walking In Memphis
TTITLE8=The Time Is Now
TTITLE9=Oh Happy Day
TTITLE10=Happiness
TTITLE11=Imagine
TTITLE12=Medley: There Must Be A God Somewhere\\Over My Head I Hear Music In The  Air\\Swing Low
TTITLE13=Didn't It Rain
TTITLE14=Higher And Higher
EXTD=(c)2000 Intershow Records, Aus der Pro7 Werbung\nupc 6086610037319
EXTT0=
EXTT1=
EXTT2=:There Must Be A God Somewhere\nOver My Head I Hear Music In The Air\n Swing Low
EXTT3=
EXTT4=
EXTT5=
EXTT6=
EXTT7=
EXTT8=
EXTT9=
EXTT10=
EXTT11=starring Queen Esther Marrow
EXTT12=There Must Be A God Somewhere\\nOver My Head I Hear Music In The  Air\\nSwing Low\n
EXTT13=starring Queen Esther Marrow
EXTT14=starring Queen Esther Marrow
PLAYORDER=
